<!DOCTYPE svg PUBLIC "-//W3C//DTD SVG 1.1//EN" "http://www.w3.org/Graphics/SVG/1.1/DTD/svg11.dtd">
<svg width="712pt" height="556pt" viewBox="0.00 0.00 712.00 556.00" xmlns="http://www.w3.org/2000/svg" xmlns:xlink="http://www.w3.org/1999/xlink">
<g id="graph1" class="graph" transform="scale(1 1) rotate(0) translate(4 552)">
<title>G</title>
<polygon fill="white" stroke="white" points="-4,5 -4,-552 709,-552 709,5 -4,5"></polygon>
<!-- Index -->
<g id="node1" class="node"><title>Index</title>
<ellipse fill="none" stroke="black" cx="465" cy="-510" rx="33.0339" ry="33.0444"></ellipse>
<ellipse fill="none" stroke="black" cx="465" cy="-510" rx="37.0352" ry="37.0469"></ellipse>
<text text-anchor="middle" x="465" y="-505.8" font-family="Times,serif" font-size="14.00">Index</text>
</g>
<!-- Post -->
<g id="node5" class="node"><title>Post</title>
<ellipse fill="none" stroke="black" cx="353" cy="-374" rx="27.5078" ry="27.8461"></ellipse>
<text text-anchor="middle" x="353" y="-369.8" font-family="Times,serif" font-size="14.00">Post</text>
</g>
<!-- Index&#45;&gt;Post -->
<g id="edge2" class="edge"><title>Index-&gt;Post</title>
<path fill="none" stroke="black" d="M438.663,-483.586C425.064,-469.965 408.531,-452.607 395,-436 387.336,-426.594 379.616,-415.835 372.922,-405.998"></path>
<polygon fill="black" stroke="black" points="375.803,-404.009 367.331,-397.647 369.986,-407.904 375.803,-404.009"></polygon>
</g>
<!-- Layout -->
<g id="node7" class="node"><title>Layout</title>
<ellipse fill="none" stroke="black" cx="586" cy="-374" rx="38.0885" ry="38.2838"></ellipse>
<text text-anchor="middle" x="586" y="-369.8" font-family="Times,serif" font-size="14.00">Layout</text>
</g>
<!-- Index&#45;&gt;Layout -->
<g id="edge8" class="edge"><title>Index-&gt;Layout</title>
<path fill="none" stroke="black" d="M490.712,-483.052C504.141,-469.285 520.708,-451.957 535,-436 541.838,-428.365 549,-420.027 555.722,-412.037"></path>
<polygon fill="black" stroke="black" points="558.543,-414.119 562.27,-404.201 553.172,-409.631 558.543,-414.119"></polygon>
</g>
<!-- LinkLoading -->
<g id="node11" class="node"><title>LinkLoading</title>
<ellipse fill="none" stroke="black" cx="465" cy="-374" rx="61.1905" ry="61.4205"></ellipse>
<text text-anchor="middle" x="465" y="-369.8" font-family="Times,serif" font-size="14.00">LinkLoading</text>
</g>
<!-- Index&#45;&gt;LinkLoading -->
<g id="edge10" class="edge"><title>Index-&gt;LinkLoading</title>
<path fill="none" stroke="black" d="M465,-472.738C465,-464.313 465,-455.061 465,-445.713"></path>
<polygon fill="black" stroke="black" points="468.5,-445.565 465,-435.565 461.5,-445.565 468.5,-445.565"></polygon>
</g>
<!-- Write -->
<g id="node2" class="node"><title>Write</title>
<ellipse fill="none" stroke="black" cx="570" cy="-510" rx="33.0297" ry="33.0389"></ellipse>
<ellipse fill="none" stroke="black" cx="570" cy="-510" rx="37.0308" ry="37.0411"></ellipse>
<text text-anchor="middle" x="570" y="-505.8" font-family="Times,serif" font-size="14.00">Write</text>
</g>
<!-- Write&#45;&gt;Layout -->
<g id="edge4" class="edge"><title>Write-&gt;Layout</title>
<path fill="none" stroke="black" d="M574.288,-473.09C576.143,-457.554 578.34,-439.152 580.327,-422.508"></path>
<polygon fill="black" stroke="black" points="583.822,-422.757 581.533,-412.413 576.872,-421.927 583.822,-422.757"></polygon>
</g>
<!-- Login -->
<g id="node3" class="node"><title>Login</title>
<ellipse fill="none" stroke="black" cx="663" cy="-510" rx="34.1521" ry="34.1993"></ellipse>
<ellipse fill="none" stroke="black" cx="663" cy="-510" rx="38.1577" ry="38.2103"></ellipse>
<text text-anchor="middle" x="663" y="-505.8" font-family="Times,serif" font-size="14.00">Login</text>
</g>
<!-- Login&#45;&gt;Layout -->
<g id="edge6" class="edge"><title>Login-&gt;Layout</title>
<path fill="none" stroke="black" d="M644.36,-476.562C633.986,-458.508 620.962,-435.844 609.852,-416.508"></path>
<polygon fill="black" stroke="black" points="612.752,-414.53 604.735,-407.603 606.682,-418.018 612.752,-414.53"></polygon>
</g>
<!-- CommentList -->
<g id="node19" class="node"><title>CommentList</title>
<ellipse fill="none" stroke="black" cx="64" cy="-205" rx="64.2262" ry="64.3017"></ellipse>
<text text-anchor="middle" x="64" y="-200.8" font-family="Times,serif" font-size="14.00">CommentList</text>
</g>
<!-- Post&#45;&gt;CommentList -->
<g id="edge18" class="edge"><title>Post-&gt;CommentList</title>
<path fill="none" stroke="black" d="M326.922,-364.566C284.778,-350.24 200.054,-318.516 137,-276 129.516,-270.954 122.094,-265.112 115.011,-258.996"></path>
<polygon fill="black" stroke="black" points="117.266,-256.318 107.472,-252.279 112.609,-261.544 117.266,-256.318"></polygon>
</g>
<!-- CommentWrite -->
<g id="node21" class="node"><title>CommentWrite</title>
<ellipse fill="none" stroke="black" cx="217" cy="-205" rx="71.1686" ry="71.2249"></ellipse>
<text text-anchor="middle" x="217" y="-200.8" font-family="Times,serif" font-size="14.00">CommentWrite</text>
</g>
<!-- Post&#45;&gt;CommentWrite -->
<g id="edge20" class="edge"><title>Post-&gt;CommentWrite</title>
<path fill="none" stroke="black" d="M336.05,-352.187C319.056,-331.318 292.036,-298.139 268.03,-268.662"></path>
<polygon fill="black" stroke="black" points="270.704,-266.403 261.676,-260.859 265.276,-270.823 270.704,-266.403"></polygon>
</g>
<!-- RefWrite -->
<g id="node23" class="node"><title>RefWrite</title>
<ellipse fill="none" stroke="black" cx="353" cy="-205" rx="46.4438" ry="46.9246"></ellipse>
<text text-anchor="middle" x="353" y="-200.8" font-family="Times,serif" font-size="14.00">RefWrite</text>
</g>
<!-- Post&#45;&gt;RefWrite -->
<g id="edge22" class="edge"><title>Post-&gt;RefWrite</title>
<path fill="none" stroke="black" d="M353,-346.169C353,-323.586 353,-290.534 353,-262.197"></path>
<polygon fill="black" stroke="black" points="356.5,-261.998 353,-251.998 349.5,-261.998 356.5,-261.998"></polygon>
</g>
<!-- RefPostList -->
<g id="node25" class="node"><title>RefPostList</title>
<ellipse fill="none" stroke="black" cx="475" cy="-205" rx="56.4545" ry="56.7735"></ellipse>
<text text-anchor="middle" x="475" y="-200.8" font-family="Times,serif" font-size="14.00">RefPostList</text>
</g>
<!-- Post&#45;&gt;RefPostList -->
<g id="edge24" class="edge"><title>Post-&gt;RefPostList</title>
<path fill="none" stroke="black" d="M367.934,-350.815C375.856,-339.174 385.825,-324.723 395,-312 407.69,-294.402 421.86,-275.419 434.707,-258.447"></path>
<polygon fill="black" stroke="black" points="437.639,-260.374 440.896,-250.292 432.063,-256.142 437.639,-260.374"></polygon>
</g>
<!-- Header -->
<g id="node13" class="node"><title>Header</title>
<ellipse fill="none" stroke="black" cx="589" cy="-205" rx="38.3682" ry="38.8228"></ellipse>
<text text-anchor="middle" x="589" y="-200.8" font-family="Times,serif" font-size="14.00">Header</text>
</g>
<!-- Layout&#45;&gt;Header -->
<g id="edge12" class="edge"><title>Layout-&gt;Header</title>
<path fill="none" stroke="black" d="M586.673,-335.522C587.104,-311.518 587.668,-280.135 588.133,-254.272"></path>
<polygon fill="black" stroke="black" points="591.638,-253.992 588.319,-243.931 584.639,-253.866 591.638,-253.992"></polygon>
</g>
<!-- Menu -->
<g id="node15" class="node"><title>Menu</title>
<ellipse fill="none" stroke="black" cx="578" cy="-49" rx="33.3459" ry="33.6286"></ellipse>
<text text-anchor="middle" x="578" y="-44.8" font-family="Times,serif" font-size="14.00">Menu</text>
</g>
<!-- Header&#45;&gt;Menu -->
<g id="edge14" class="edge"><title>Header-&gt;Menu</title>
<path fill="none" stroke="black" d="M586.281,-165.933C584.697,-143.765 582.697,-115.754 581.059,-92.8197"></path>
<polygon fill="black" stroke="black" points="584.538,-92.4038 580.334,-82.6786 577.556,-92.9026 584.538,-92.4038"></polygon>
</g>
<!-- Search -->
<g id="node17" class="node"><title>Search</title>
<ellipse fill="none" stroke="black" cx="667" cy="-49" rx="36.9641" ry="37.1174"></ellipse>
<text text-anchor="middle" x="667" y="-44.8" font-family="Times,serif" font-size="14.00">Search</text>
</g>
<!-- Header&#45;&gt;Search -->
<g id="edge16" class="edge"><title>Header-&gt;Search</title>
<path fill="none" stroke="black" d="M606.311,-169.822C618.011,-146.722 633.531,-116.081 645.946,-91.5672"></path>
<polygon fill="black" stroke="black" points="649.143,-93.0031 650.539,-82.5006 642.898,-89.8402 649.143,-93.0031"></polygon>
</g>
<!-- Comment -->
<g id="node27" class="node"><title>Comment</title>
<ellipse fill="none" stroke="black" cx="64" cy="-49" rx="49.1927" ry="49.257"></ellipse>
<text text-anchor="middle" x="64" y="-44.8" font-family="Times,serif" font-size="14.00">Comment</text>
</g>
<!-- CommentList&#45;&gt;Comment -->
<g id="edge26" class="edge"><title>CommentList-&gt;Comment</title>
<path fill="none" stroke="black" d="M64,-140.473C64,-129.909 64,-118.996 64,-108.563"></path>
<polygon fill="black" stroke="black" points="67.5001,-108.32 64,-98.3205 60.5001,-108.321 67.5001,-108.32"></polygon>
</g>
<!-- RefPost -->
<g id="node29" class="node"><title>RefPost</title>
<ellipse fill="none" stroke="black" cx="475" cy="-49" rx="41.4209" ry="41.7288"></ellipse>
<text text-anchor="middle" x="475" y="-44.8" font-family="Times,serif" font-size="14.00">RefPost</text>
</g>
<!-- RefPostList&#45;&gt;RefPost -->
<g id="edge28" class="edge"><title>RefPostList-&gt;RefPost</title>
<path fill="none" stroke="black" d="M475,-147.967C475,-132.594 475,-116.015 475,-100.945"></path>
<polygon fill="black" stroke="black" points="478.5,-100.786 475,-90.786 471.5,-100.786 478.5,-100.786"></polygon>
</g>
</g>
</svg>