<!DOCTYPE svg PUBLIC "-//W3C//DTD SVG 1.1//EN" "http://www.w3.org/Graphics/SVG/1.1/DTD/svg11.dtd">
<svg width="374pt" height="358pt" viewBox="0.00 0.00 374.00 358.00" xmlns="http://www.w3.org/2000/svg" xmlns:xlink="http://www.w3.org/1999/xlink">
<g id="graph1" class="graph" transform="scale(1 1) rotate(0) translate(4 354)">
<title>G</title>
<polygon fill="white" stroke="white" points="-4,5 -4,-354 371,-354 371,5 -4,5"></polygon>
<!-- List -->
<g id="node1" class="node"><title>List</title>
<ellipse fill="none" stroke="black" cx="134" cy="-312" rx="26.0844" ry="26.11"></ellipse>
<ellipse fill="none" stroke="black" cx="134" cy="-312" rx="30.0883" ry="30.1178"></ellipse>
<text text-anchor="middle" x="134" y="-307.8" font-family="Times,serif" font-size="14.00">List</text>
</g>
<!-- Post -->
<g id="node5" class="node"><title>Post</title>
<ellipse fill="none" stroke="black" cx="27" cy="-176" rx="27.5078" ry="27.8461"></ellipse>
<text text-anchor="middle" x="27" y="-171.8" font-family="Times,serif" font-size="14.00">Post</text>
</g>
<!-- List&#45;&gt;Post -->
<g id="edge2" class="edge"><title>List-&gt;Post</title>
<path fill="none" stroke="black" d="M112.182,-290.712C97.6677,-276.645 78.6503,-257.08 64,-238 57.1974,-229.141 50.5961,-218.953 44.8984,-209.473"></path>
<polygon fill="black" stroke="black" points="47.8125,-207.524 39.7354,-200.667 41.7738,-211.064 47.8125,-207.524"></polygon>
</g>
<!-- Layout -->
<g id="node7" class="node"><title>Layout</title>
<ellipse fill="none" stroke="black" cx="252" cy="-176" rx="38.0885" ry="38.2838"></ellipse>
<text text-anchor="middle" x="252" y="-171.8" font-family="Times,serif" font-size="14.00">Layout</text>
</g>
<!-- List&#45;&gt;Layout -->
<g id="edge8" class="edge"><title>List-&gt;Layout</title>
<path fill="none" stroke="black" d="M155.085,-290.112C169.281,-275.785 188.219,-256.155 204,-238 210.298,-230.755 216.807,-222.819 222.923,-215.137"></path>
<polygon fill="black" stroke="black" points="225.937,-216.967 229.376,-206.946 220.438,-212.635 225.937,-216.967"></polygon>
</g>
<!-- LinkLoading -->
<g id="node11" class="node"><title>LinkLoading</title>
<ellipse fill="none" stroke="black" cx="134" cy="-176" rx="61.1905" ry="61.4205"></ellipse>
<text text-anchor="middle" x="134" y="-171.8" font-family="Times,serif" font-size="14.00">LinkLoading</text>
</g>
<!-- List&#45;&gt;LinkLoading -->
<g id="edge10" class="edge"><title>List-&gt;LinkLoading</title>
<path fill="none" stroke="black" d="M134,-281.924C134,-271.761 134,-259.862 134,-247.799"></path>
<polygon fill="black" stroke="black" points="137.5,-247.661 134,-237.661 130.5,-247.661 137.5,-247.661"></polygon>
</g>
<!-- Write -->
<g id="node2" class="node"><title>Write</title>
<ellipse fill="none" stroke="black" cx="235" cy="-312" rx="33.0297" ry="33.0389"></ellipse>
<ellipse fill="none" stroke="black" cx="235" cy="-312" rx="37.0308" ry="37.0411"></ellipse>
<text text-anchor="middle" x="235" y="-307.8" font-family="Times,serif" font-size="14.00">Write</text>
</g>
<!-- Write&#45;&gt;Layout -->
<g id="edge4" class="edge"><title>Write-&gt;Layout</title>
<path fill="none" stroke="black" d="M239.556,-275.09C241.527,-259.554 243.861,-241.152 245.973,-224.508"></path>
<polygon fill="black" stroke="black" points="249.467,-224.774 247.254,-214.413 242.523,-223.893 249.467,-224.774"></polygon>
</g>
<!-- Login -->
<g id="node3" class="node"><title>Login</title>
<ellipse fill="none" stroke="black" cx="328" cy="-312" rx="34.1521" ry="34.1993"></ellipse>
<ellipse fill="none" stroke="black" cx="328" cy="-312" rx="38.1577" ry="38.2103"></ellipse>
<text text-anchor="middle" x="328" y="-307.8" font-family="Times,serif" font-size="14.00">Login</text>
</g>
<!-- Login&#45;&gt;Layout -->
<g id="edge6" class="edge"><title>Login-&gt;Layout</title>
<path fill="none" stroke="black" d="M309.603,-278.562C299.363,-260.508 286.508,-237.844 275.542,-218.508"></path>
<polygon fill="black" stroke="black" points="278.469,-216.575 270.491,-209.603 272.38,-220.028 278.469,-216.575"></polygon>
</g>
<!-- Header -->
<g id="node13" class="node"><title>Header</title>
<ellipse fill="none" stroke="black" cx="252" cy="-39" rx="38.3682" ry="38.8228"></ellipse>
<text text-anchor="middle" x="252" y="-34.8" font-family="Times,serif" font-size="14.00">Header</text>
</g>
<!-- Layout&#45;&gt;Header -->
<g id="edge12" class="edge"><title>Layout-&gt;Header</title>
<path fill="none" stroke="black" d="M252,-137.395C252,-122.291 252,-104.685 252,-88.6276"></path>
<polygon fill="black" stroke="black" points="255.5,-88.3413 252,-78.3414 248.5,-88.3414 255.5,-88.3413"></polygon>
</g>
</g>
</svg>