<!DOCTYPE svg PUBLIC "-//W3C//DTD SVG 1.1//EN" "http://www.w3.org/Graphics/SVG/1.1/DTD/svg11.dtd">
<svg width="378pt" height="462pt" viewBox="0.00 0.00 378.00 462.00" xmlns="http://www.w3.org/2000/svg" xmlns:xlink="http://www.w3.org/1999/xlink">
<g id="graph1" class="graph" transform="scale(1 1) rotate(0) translate(4 458)">
<title>G</title>
<polygon fill="white" stroke="white" points="-4,5 -4,-458 375,-458 375,5 -4,5"></polygon>
<!-- Index -->
<g id="node1" class="node"><title>Index</title>
<ellipse fill="none" stroke="black" cx="134" cy="-416" rx="33.0339" ry="33.0444"></ellipse>
<ellipse fill="none" stroke="black" cx="134" cy="-416" rx="37.0352" ry="37.0469"></ellipse>
<text text-anchor="middle" x="134" y="-411.8" font-family="Times,serif" font-size="14.00">Index</text>
</g>
<!-- Post -->
<g id="node5" class="node"><title>Post</title>
<ellipse fill="none" stroke="black" cx="27" cy="-280" rx="27.5078" ry="27.8461"></ellipse>
<text text-anchor="middle" x="27" y="-275.8" font-family="Times,serif" font-size="14.00">Post</text>
</g>
<!-- Index&#45;&gt;Post -->
<g id="edge2" class="edge"><title>Index-&gt;Post</title>
<path fill="none" stroke="black" d="M107.264,-389.901C93.5556,-376.366 77.0462,-358.991 64,-342 57.1974,-333.141 50.5961,-322.953 44.8984,-313.473"></path>
<polygon fill="black" stroke="black" points="47.8125,-311.524 39.7354,-304.667 41.7738,-315.064 47.8125,-311.524"></polygon>
</g>
<!-- Layout -->
<g id="node7" class="node"><title>Layout</title>
<ellipse fill="none" stroke="black" cx="252" cy="-280" rx="38.0885" ry="38.2838"></ellipse>
<text text-anchor="middle" x="252" y="-275.8" font-family="Times,serif" font-size="14.00">Layout</text>
</g>
<!-- Index&#45;&gt;Layout -->
<g id="edge8" class="edge"><title>Index-&gt;Layout</title>
<path fill="none" stroke="black" d="M159.908,-389.225C173.39,-375.505 189.947,-358.168 204,-342 210.298,-334.755 216.807,-326.819 222.923,-319.137"></path>
<polygon fill="black" stroke="black" points="225.937,-320.967 229.376,-310.946 220.438,-316.635 225.937,-320.967"></polygon>
</g>
<!-- LinkLoading -->
<g id="node11" class="node"><title>LinkLoading</title>
<ellipse fill="none" stroke="black" cx="134" cy="-280" rx="61.1905" ry="61.4205"></ellipse>
<text text-anchor="middle" x="134" y="-275.8" font-family="Times,serif" font-size="14.00">LinkLoading</text>
</g>
<!-- Index&#45;&gt;LinkLoading -->
<g id="edge10" class="edge"><title>Index-&gt;LinkLoading</title>
<path fill="none" stroke="black" d="M134,-378.738C134,-370.313 134,-361.061 134,-351.713"></path>
<polygon fill="black" stroke="black" points="137.5,-351.565 134,-341.565 130.5,-351.565 137.5,-351.565"></polygon>
</g>
<!-- Write -->
<g id="node2" class="node"><title>Write</title>
<ellipse fill="none" stroke="black" cx="239" cy="-416" rx="33.0297" ry="33.0389"></ellipse>
<ellipse fill="none" stroke="black" cx="239" cy="-416" rx="37.0308" ry="37.0411"></ellipse>
<text text-anchor="middle" x="239" y="-411.8" font-family="Times,serif" font-size="14.00">Write</text>
</g>
<!-- Write&#45;&gt;Layout -->
<g id="edge4" class="edge"><title>Write-&gt;Layout</title>
<path fill="none" stroke="black" d="M242.484,-379.09C243.991,-363.554 245.776,-345.152 247.391,-328.508"></path>
<polygon fill="black" stroke="black" points="250.888,-328.704 248.37,-318.413 243.921,-328.028 250.888,-328.704"></polygon>
</g>
<!-- Login -->
<g id="node3" class="node"><title>Login</title>
<ellipse fill="none" stroke="black" cx="332" cy="-416" rx="34.1521" ry="34.1993"></ellipse>
<ellipse fill="none" stroke="black" cx="332" cy="-416" rx="38.1577" ry="38.2103"></ellipse>
<text text-anchor="middle" x="332" y="-411.8" font-family="Times,serif" font-size="14.00">Login</text>
</g>
<!-- Login&#45;&gt;Layout -->
<g id="edge6" class="edge"><title>Login-&gt;Layout</title>
<path fill="none" stroke="black" d="M312.838,-382.904C301.935,-364.641 288.165,-341.577 276.485,-322.012"></path>
<polygon fill="black" stroke="black" points="279.414,-320.091 271.283,-313.299 273.404,-323.679 279.414,-320.091"></polygon>
</g>
<!-- Header -->
<g id="node13" class="node"><title>Header</title>
<ellipse fill="none" stroke="black" cx="252" cy="-143" rx="38.3682" ry="38.8228"></ellipse>
<text text-anchor="middle" x="252" y="-138.8" font-family="Times,serif" font-size="14.00">Header</text>
</g>
<!-- Layout&#45;&gt;Header -->
<g id="edge12" class="edge"><title>Layout-&gt;Header</title>
<path fill="none" stroke="black" d="M252,-241.395C252,-226.291 252,-208.685 252,-192.628"></path>
<polygon fill="black" stroke="black" points="255.5,-192.341 252,-182.341 248.5,-192.341 255.5,-192.341"></polygon>
</g>
<!-- Menu -->
<g id="node15" class="node"><title>Menu</title>
<ellipse fill="none" stroke="black" cx="252" cy="-34" rx="33.3459" ry="33.6286"></ellipse>
<text text-anchor="middle" x="252" y="-29.8" font-family="Times,serif" font-size="14.00">Menu</text>
</g>
<!-- Header&#45;&gt;Menu -->
<g id="edge14" class="edge"><title>Header-&gt;Menu</title>
<path fill="none" stroke="black" d="M252,-103.975C252,-95.519 252,-86.4992 252,-77.8646"></path>
<polygon fill="black" stroke="black" points="255.5,-77.5871 252,-67.5871 248.5,-77.5871 255.5,-77.5871"></polygon>
</g>
</g>
</svg>