<!DOCTYPE svg PUBLIC "-//W3C//DTD SVG 1.1//EN" "http://www.w3.org/Graphics/SVG/1.1/DTD/svg11.dtd">
<svg width="378pt" height="358pt" viewBox="0.00 0.00 378.00 358.00" xmlns="http://www.w3.org/2000/svg" xmlns:xlink="http://www.w3.org/1999/xlink">
<g id="graph1" class="graph" transform="scale(1 1) rotate(0) translate(4 354)">
<title>G</title>
<polygon fill="white" stroke="white" points="-4,5 -4,-354 375,-354 375,5 -4,5"></polygon>
<!-- Index -->
<g id="node1" class="node"><title>Index</title>
<ellipse fill="none" stroke="black" cx="134" cy="-312" rx="33.0339" ry="33.0444"></ellipse>
<ellipse fill="none" stroke="black" cx="134" cy="-312" rx="37.0352" ry="37.0469"></ellipse>
<text text-anchor="middle" x="134" y="-307.8" font-family="Times,serif" font-size="14.00">Index</text>
</g>
<!-- Post -->
<g id="node5" class="node"><title>Post</title>
<ellipse fill="none" stroke="black" cx="27" cy="-176" rx="27.5078" ry="27.8461"></ellipse>
<text text-anchor="middle" x="27" y="-171.8" font-family="Times,serif" font-size="14.00">Post</text>
</g>
<!-- Index&#45;&gt;Post -->
<g id="edge2" class="edge"><title>Index-&gt;Post</title>
<path fill="none" stroke="black" d="M107.264,-285.901C93.5556,-272.366 77.0462,-254.991 64,-238 57.1974,-229.141 50.5961,-218.953 44.8984,-209.473"></path>
<polygon fill="black" stroke="black" points="47.8125,-207.524 39.7354,-200.667 41.7738,-211.064 47.8125,-207.524"></polygon>
</g>
<!-- Layout -->
<g id="node7" class="node"><title>Layout</title>
<ellipse fill="none" stroke="black" cx="252" cy="-176" rx="38.0885" ry="38.2838"></ellipse>
<text text-anchor="middle" x="252" y="-171.8" font-family="Times,serif" font-size="14.00">Layout</text>
</g>
<!-- Index&#45;&gt;Layout -->
<g id="edge8" class="edge"><title>Index-&gt;Layout</title>
<path fill="none" stroke="black" d="M159.908,-285.225C173.39,-271.505 189.947,-254.168 204,-238 210.298,-230.755 216.807,-222.819 222.923,-215.137"></path>
<polygon fill="black" stroke="black" points="225.937,-216.967 229.376,-206.946 220.438,-212.635 225.937,-216.967"></polygon>
</g>
<!-- LinkLoading -->
<g id="node11" class="node"><title>LinkLoading</title>
<ellipse fill="none" stroke="black" cx="134" cy="-176" rx="61.1905" ry="61.4205"></ellipse>
<text text-anchor="middle" x="134" y="-171.8" font-family="Times,serif" font-size="14.00">LinkLoading</text>
</g>
<!-- Index&#45;&gt;LinkLoading -->
<g id="edge10" class="edge"><title>Index-&gt;LinkLoading</title>
<path fill="none" stroke="black" d="M134,-274.738C134,-266.313 134,-257.061 134,-247.713"></path>
<polygon fill="black" stroke="black" points="137.5,-247.565 134,-237.565 130.5,-247.565 137.5,-247.565"></polygon>
</g>
<!-- Write -->
<g id="node2" class="node"><title>Write</title>
<ellipse fill="none" stroke="black" cx="239" cy="-312" rx="33.0297" ry="33.0389"></ellipse>
<ellipse fill="none" stroke="black" cx="239" cy="-312" rx="37.0308" ry="37.0411"></ellipse>
<text text-anchor="middle" x="239" y="-307.8" font-family="Times,serif" font-size="14.00">Write</text>
</g>
<!-- Write&#45;&gt;Layout -->
<g id="edge4" class="edge"><title>Write-&gt;Layout</title>
<path fill="none" stroke="black" d="M242.484,-275.09C243.991,-259.554 245.776,-241.152 247.391,-224.508"></path>
<polygon fill="black" stroke="black" points="250.888,-224.704 248.37,-214.413 243.921,-224.028 250.888,-224.704"></polygon>
</g>
<!-- Login -->
<g id="node3" class="node"><title>Login</title>
<ellipse fill="none" stroke="black" cx="332" cy="-312" rx="34.1521" ry="34.1993"></ellipse>
<ellipse fill="none" stroke="black" cx="332" cy="-312" rx="38.1577" ry="38.2103"></ellipse>
<text text-anchor="middle" x="332" y="-307.8" font-family="Times,serif" font-size="14.00">Login</text>
</g>
<!-- Login&#45;&gt;Layout -->
<g id="edge6" class="edge"><title>Login-&gt;Layout</title>
<path fill="none" stroke="black" d="M312.838,-278.904C301.935,-260.641 288.165,-237.577 276.485,-218.012"></path>
<polygon fill="black" stroke="black" points="279.414,-216.091 271.283,-209.299 273.404,-219.679 279.414,-216.091"></polygon>
</g>
<!-- Header -->
<g id="node13" class="node"><title>Header</title>
<ellipse fill="none" stroke="black" cx="252" cy="-39" rx="38.3682" ry="38.8228"></ellipse>
<text text-anchor="middle" x="252" y="-34.8" font-family="Times,serif" font-size="14.00">Header</text>
</g>
<!-- Layout&#45;&gt;Header -->
<g id="edge12" class="edge"><title>Layout-&gt;Header</title>
<path fill="none" stroke="black" d="M252,-137.395C252,-122.291 252,-104.685 252,-88.6276"></path>
<polygon fill="black" stroke="black" points="255.5,-88.3413 252,-78.3414 248.5,-88.3414 255.5,-88.3413"></polygon>
</g>
</g>
</svg>